PathFileType	4	(X/Y/Z)	D:\TRACE\v60_Jaco2_6-2-23\BothDRS_Motion3_10-platform.trc
DataRate	CameraRate	NumFrames	NumMarkers	Units	OrigDataRate	OrigDataStartFrame	OrigNumFrames
100.00	100.00	      67	5	mm	100.00	3501	      7000
Frame#	Time	Left_Front			Right_Front			Left_Aft			Right_Aft			Post			
		X1	Y1	Z1	X2	Y2	Z2	X3	Y3	Z3	X4	Y4	Z4	X5	Y5	Z5	

3501	35.000	-747.65442	-2.93870	-653.40417	822.66034	-4.69039	-630.60504	-678.77570	20.63297	482.87485	735.62451	19.18645	585.84222	47.12146	1287.97852	-991.80554	
3502	35.010	-747.58130	-3.02200	-653.40472	822.73206	-4.66491	-630.61169	-678.74091	20.62004	482.84964	735.66315	19.18987	585.84064	47.20955	1287.93188	-991.82037	
3503	35.020	-747.63043	-3.05359	-653.41779	822.72681	-4.72102	-630.59833	-678.69879	20.58917	482.86502	735.60742	19.15534	585.80957	47.16341	1287.87830	-991.83521	
3504	35.030	-747.59650	-3.09295	-653.45587	822.67413	-4.77382	-630.60126	-678.65930	20.51099	482.92181	735.67474	19.17564	585.84839	47.11951	1287.88318	-991.95178	
3505	35.040	-747.52032	-3.22927	-653.47369	822.68292	-4.80950	-630.60498	-678.67047	20.42753	482.88940	735.70190	19.18178	585.85168	47.09045	1287.90100	-991.95221	
3506	35.050	-747.55652	-3.15901	-653.52740	822.72229	-4.69779	-630.62146	-678.66516	20.43520	482.87488	735.70477	19.17399	585.85004	47.15393	1287.85889	-991.99847	
3507	35.060	-747.58960	-3.03572	-653.44269	822.77911	-4.45137	-630.57849	-678.66150	20.50401	482.83182	735.68652	19.18402	585.82056	47.16428	1287.90710	-992.01886	
3508	35.070	-747.61627	-2.94887	-653.37262	822.75934	-4.38373	-630.59375	-678.66705	20.51420	482.86496	735.65558	19.11749	585.84241	47.31733	1287.92090	-992.01794	
3509	35.080	-747.63934	-3.14128	-653.41113	822.72382	-4.42069	-630.60455	-678.75647	20.64751	482.76804	735.64307	19.07308	585.83643	47.18896	1287.99573	-991.94855	
3510	35.090	-747.58728	-3.41473	-653.47894	822.74786	-4.36189	-630.62561	-678.89465	20.92645	482.52054	735.71222	19.08713	585.82404	47.16946	1287.92700	-991.89423	
3511	35.100	-747.52643	-3.27008	-653.50592	822.72931	-4.49794	-630.67810	-678.58948	20.42532	482.88568	735.77087	19.20397	585.79498	47.03968	1287.87634	-991.75409	
3512	35.110	-747.49750	-3.16674	-653.48218	822.79596	-4.43412	-630.66315	-678.56982	20.44549	482.90030	735.83752	19.18586	585.84320	47.27015	1287.95313	-991.72589	
3513	35.120	-747.49976	-3.11613	-653.49365	822.83704	-4.37241	-630.58490	-678.80145	20.72049	482.84708	735.80328	19.15549	585.79504	47.38610	1288.02148	-991.69196	
3514	35.130	-747.54742	-2.95940	-653.34772	822.77063	-4.24747	-630.55524	-678.65210	20.49833	482.96246	735.72278	19.04571	585.86005	47.27946	1288.12793	-991.56665	
3515	35.140	-747.57855	-2.82340	-653.26483	822.74677	-4.07791	-630.49860	-678.66016	20.46591	482.87817	735.67676	18.86291	585.90454	47.25708	1288.44568	-991.55658	
3516	35.150	-747.68469	-2.62872	-653.15283	822.68121	-3.94398	-630.48157	-678.62274	20.31063	482.94006	735.16815	18.30680	586.13123	47.37993	1288.95837	-991.47681	
3517	35.160	-747.69489	-2.51181	-653.07935	822.61517	-3.78464	-630.46149	-678.60529	20.05824	483.08060	735.42786	18.42214	585.99109	47.47545	1289.19238	-991.35333	
3518	35.170	-747.75256	-2.61875	-653.20349	822.82831	-3.64873	-630.78894	-678.57538	19.96406	483.06067	735.57104	18.28551	585.96967	47.52406	1289.45081	-991.07623	
3519	35.180	-747.75696	-2.38794	-653.13226	823.09644	-3.15362	-630.62708	-678.52405	19.69889	483.06717	735.64929	18.15646	586.05914	47.56588	1289.83435	-990.65588	
3520	35.190	-747.79364	-2.00293	-652.92456	822.78674	-2.63779	-630.12598	-678.53662	19.42880	483.10315	735.76715	17.95715	586.17548	47.60729	1290.28479	-990.02313	
3521	35.200	-747.73846	-1.53384	-652.91077	822.77527	-2.48497	-630.19061	-678.60577	18.98875	483.25479	735.72766	17.64484	586.23663	47.50612	1291.05627	-989.40692	
3522	35.210	-747.67474	-0.87647	-652.53821	822.61682	-2.08515	-630.15430	-678.63757	18.73891	483.23352	735.65509	17.38129	586.41803	47.23470	1291.68262	-988.60364	
3523	35.220	-747.83276	-0.19903	-652.50220	822.60553	-1.60927	-630.04999	-678.77423	18.51793	483.25339	735.77728	16.96792	586.47125	47.37611	1292.18994	-987.53784	
3524	35.230	-747.86481	0.17880	-652.31165	822.89221	-1.24235	-630.22498	-678.82379	18.33283	483.38403	735.63739	16.53133	586.67950	47.33861	1292.84070	-986.25568	
3525	35.240	-748.41443	0.78550	-651.93188	822.54553	-0.81977	-629.86963	-678.83972	17.89742	483.56595	735.39600	15.96616	586.45282	47.09414	1293.56982	-985.17908	
3526	35.250	-748.44080	0.96930	-652.32507	822.35211	-0.44553	-629.73486	-678.90613	17.61183	483.71237	735.16492	15.76646	586.85321	46.96356	1294.21375	-983.57446	
3527	35.260	-748.59161	1.15621	-652.31848	822.26276	-0.13229	-629.57654	-679.07562	17.39049	483.76630	735.17218	15.57791	586.91699	46.80371	1294.78040	-982.08502	
3528	35.270	-748.62347	1.48198	-652.31250	822.14612	0.26396	-629.54657	-679.22614	17.22800	483.75577	735.07666	15.32304	587.00256	46.69989	1295.09558	-980.57587	
3529	35.280	-748.53094	1.98972	-652.18372	822.09491	0.87585	-629.42804	-679.25867	17.01835	483.89517	735.12500	15.09271	587.07684	46.62542	1295.90088	-979.03534	
3530	35.290	-748.52686	2.42710	-652.16052	821.99933	1.20357	-629.44336	-679.40967	16.81599	484.04520	735.13568	14.77394	587.20184	46.57590	1296.71631	-978.02423	
3531	35.300	-748.70093	2.84443	-652.12366	821.94757	1.56861	-629.35968	-679.53076	16.55433	484.10959	734.81348	14.30639	587.23114	46.61571	1296.91589	-976.99866	
3532	35.310	-748.81775	3.14360	-652.11230	821.83875	1.92476	-629.24426	-679.65088	16.24727	484.28680	734.71100	14.09591	587.37219	46.53546	1297.51514	-976.32593	
3533	35.320	-748.87683	3.28892	-652.31903	821.59503	2.34321	-629.19885	-679.91071	15.92409	484.32184	734.79913	13.83622	587.44733	46.50216	1298.44507	-975.73511	
3534	35.330	-749.03900	4.16978	-652.13220	821.40295	2.81239	-629.12201	-680.05780	15.52800	484.48526	734.23059	13.05037	587.53534	46.09892	1298.98376	-975.47510	
3535	35.340	-749.21930	4.79837	-651.94391	821.51978	3.40349	-628.81519	-680.10858	15.19749	484.71494	733.82977	12.23051	587.63586	45.96290	1299.69678	-975.16815	
3536	35.350	-749.26038	5.17138	-651.64728	821.33075	3.89527	-628.88293	-680.19171	14.87073	484.91281	733.13733	11.54562	588.02142	45.95373	1300.57361	-975.01135	
3537	35.360	-749.44458	5.70212	-651.44855	821.04376	4.39562	-628.74042	-680.31458	14.48966	485.01025	734.28162	12.08546	587.97919	45.73982	1301.50305	-974.45160	
3538	35.370	-749.71735	6.32168	-651.35065	820.99078	5.07318	-628.44281	-680.52521	13.95508	485.13486	734.09814	11.44909	588.22955	45.52901	1302.40186	-973.75891	
3539	35.380	-749.93958	6.87925	-651.23938	820.86749	5.74771	-628.51636	-680.61664	13.52833	485.28177	733.89716	11.01131	588.22852	45.67684	1303.10486	-972.89844	
3540	35.390	-750.08130	7.44781	-650.99493	820.63629	6.25331	-628.39606	-680.65253	13.21744	485.36777	733.48804	10.36077	587.62744	45.26068	1304.16565	-971.71051	
3541	35.400	-750.11890	8.13326	-650.78552	820.68372	6.95119	-628.01038	-680.72382	12.82408	485.44409	733.59198	10.22391	588.44586	45.09816	1305.02051	-970.50763	
3542	35.410	-750.32019	8.66401	-650.65570	820.43542	7.44567	-627.97009	-681.01410	12.35275	485.62195	733.31763	9.68782	588.58539	45.03941	1305.77234	-969.13367	
3543	35.420	-750.46191	9.26427	-650.59436	820.15784	7.76269	-627.96722	-681.36719	11.94682	485.64957	733.15979	9.10314	588.77631	44.74165	1306.65771	-967.27917	
3544	35.430	-750.55115	9.84846	-650.40717	819.88538	8.34891	-627.90656	-681.53229	11.73556	485.64270	733.07281	8.82879	588.97205	44.44333	1307.28918	-965.56781	
3545	35.440	-750.70624	10.32487	-650.02948	819.62860	8.98722	-627.80164	-681.66595	11.37143	485.74585	732.82965	8.43327	589.09180	44.27407	1308.02246	-963.52405	
3546	35.450	-750.97498	10.83858	-649.90918	819.50610	9.59949	-627.62695	-681.97107	10.94022	485.92661	732.46716	7.97256	589.15411	43.98772	1308.99292	-961.44592	
3547	35.460	-751.19269	11.17865	-649.92859	819.18121	10.08905	-627.49493	-682.12726	10.46673	486.22815	732.87408	7.73362	589.30359	43.88302	1310.02686	-959.42664	
3548	35.470	-751.57745	12.12165	-650.04584	819.20630	10.35100	-627.68591	-682.38239	10.00065	486.39767	732.53247	7.28488	589.45490	43.59904	1310.95508	-957.63538	
3549	35.480	-751.71735	12.70577	-650.15295	818.75140	10.99671	-627.14093	-682.32751	9.49252	486.74802	731.40759	6.12614	590.00385	43.14040	1311.71289	-955.69586	
3550	35.490	-752.11365	13.57285	-649.78870	818.38263	11.87507	-626.87836	-682.77692	9.04177	486.72220	731.04083	5.34625	590.15454	42.62231	1312.38647	-954.31329	
3551	35.500	-752.40186	14.30867	-649.54779	818.08551	12.48423	-626.69788	-683.09894	8.74617	486.85696	731.43536	5.35956	589.88177	42.45861	1313.60779	-952.75592	
3552	35.510	-752.95758	14.98466	-649.10522	817.95184	13.21275	-626.67352	-683.45197	8.29682	486.98792	730.98444	4.82725	590.09540	42.14293	1314.70947	-951.60657	
3553	35.520	-752.98865	15.27976	-649.01831	817.74713	13.86698	-626.46240	-683.68835	8.00234	487.08694	730.60193	4.13394	590.16632	41.78596	1315.53113	-950.86218	
3554	35.530	-753.19415	16.02467	-648.95325	817.54248	14.58315	-626.23309	-683.68536	6.84138	487.57642	730.48480	3.76035	590.24390	41.54472	1316.44080	-949.69556	
3555	35.540	-753.27173	17.22093	-648.95148	817.22296	15.02813	-626.02350	-684.11115	6.66890	487.66095	730.33826	3.36608	590.49872	41.09322	1317.19751	-948.54382	
3556	35.550	-753.45007	17.53734	-648.69794	816.97791	15.51133	-625.89111	-684.42639	6.41597	487.69281	729.90503	2.75938	590.63647	40.76243	1318.06226	-947.56909	
3557	35.560	-753.63470	17.72328	-648.60681	816.66187	16.32795	-625.71033	-684.48199	5.86727	487.94049	730.06738	2.45986	590.85864	40.68852	1319.14832	-946.69202	
3558	35.570	-754.23065	18.35596	-648.18176	816.28033	17.14865	-625.73163	-684.74908	5.42689	488.21545	729.11005	1.56025	590.94031	40.13878	1320.13306	-945.51721	
3559	35.580	-754.97797	19.21759	-648.09344	815.90552	17.71844	-625.64795	-685.30859	4.85567	488.36609	728.74023	1.08565	590.98132	39.97421	1320.83008	-944.16620	
3560	35.590	-755.28082	19.78094	-648.06189	815.37415	18.23328	-625.42181	-685.81500	4.39937	488.44553	728.54150	0.85876	591.07800	39.66666	1321.93359	-942.52600	
3561	35.600	-755.72388	20.54440	-648.01453	815.08356	18.84792	-625.20599	-686.16986	3.94075	488.51859	728.03705	0.24331	591.28198	39.06901	1322.84729	-940.92316	
3562	35.610	-756.01172	21.29098	-647.97083	814.60889	19.41579	-625.06293	-686.41138	3.62240	488.67545	727.70258	-0.43873	591.52380	39.00428	1323.75098	-939.41937	
3563	35.620	-756.24292	21.90434	-647.85760	814.34723	20.03102	-624.90527	-686.90680	3.15905	488.82962	727.47009	-0.96797	591.64679	38.17743	1324.72412	-937.75458	
3564	35.630	-756.57733	22.39974	-647.60382	814.00848	20.87567	-624.71075	-686.90778	2.76842	488.94305	726.84583	-2.04637	591.34161	38.21538	1325.84363	-935.98090	
3565	35.640	-756.86615	22.95771	-647.26111	813.65533	21.54576	-624.42334	-687.40088	2.32251	488.98605	726.58649	-2.36342	591.26849	37.68088	1326.86108	-934.14148	
3566	35.650	-757.45923	23.70358	-646.89978	813.25012	22.12671	-624.26752	-688.16058	1.62866	489.08804	726.18408	-2.62056	591.91046	36.95881	1327.58496	-932.21204	
3567	35.660	-758.06726	24.28597	-646.39319	812.80438	22.68462	-624.21466	-688.41742	1.14795	489.23904	725.70367	-3.22959	592.15808	36.56770	1328.25928	-930.50922	
